<svg xmlns="http://www.w3.org/2000/svg" xmlns:xlink="http://www.w3.org/1999/xlink" width="1080" zoomAndPan="magnify" viewBox="0 0 810 809.999993" height="1080" preserveAspectRatio="xMidYMid meet" version="1.0"><defs><filter x="0%" y="0%" width="100%" height="100%" id="e53a8e5973"><feColorMatrix values="0 0 0 0 1 0 0 0 0 1 0 0 0 0 1 0 0 0 1 0" color-interpolation-filters="sRGB"/></filter><g/><clipPath id="8c4a4d3130"><path d="M 545.921875 270.785156 L 767.171875 270.785156 L 767.171875 539.285156 L 545.921875 539.285156 Z M 545.921875 270.785156 " clip-rule="nonzero"/></clipPath><mask id="a412ad622b"><g filter="url(#e53a8e5973)"><rect x="-81" width="972" fill="#000000" y="-80.999999" height="971.999992" fill-opacity="0.4"/></g></mask><clipPath id="d406a98884"><path d="M 0.121094 1 L 80.761719 1 L 80.761719 151 L 0.121094 151 Z M 0.121094 1 " clip-rule="nonzero"/></clipPath><clipPath id="e5169c4bab"><rect x="0" width="81" y="0" height="152"/></clipPath><mask id="e29369786b"><g filter="url(#e53a8e5973)"><rect x="-81" width="972" fill="#000000" y="-80.999999" height="971.999992" fill-opacity="0.4"/></g></mask><clipPath id="2f54b03ff1"><path d="M 0.28125 0.359375 L 13.71875 0.359375 L 13.71875 67.320312 L 0.28125 67.320312 Z M 0.28125 0.359375 " clip-rule="nonzero"/></clipPath><clipPath id="8db29346c7"><rect x="0" width="14" y="0" height="68"/></clipPath><mask id="204330f571"><g filter="url(#e53a8e5973)"><rect x="-81" width="972" fill="#000000" y="-80.999999" height="971.999992" fill-opacity="0.4"/></g></mask><clipPath id="cbfb579658"><path d="M 1 0.71875 L 79.800781 0.71875 L 79.800781 111.601562 L 1 111.601562 Z M 1 0.71875 " clip-rule="nonzero"/></clipPath><clipPath id="b8a1e8bdaf"><rect x="0" width="80" y="0" height="112"/></clipPath><mask id="03d1a81cc8"><g filter="url(#e53a8e5973)"><rect x="-81" width="972" fill="#000000" y="-80.999999" height="971.999992" fill-opacity="0.4"/></g></mask><clipPath id="bf6bbd355e"><path d="M 0.398438 1 L 121.601562 1 L 121.601562 46.800781 L 0.398438 46.800781 Z M 0.398438 1 " clip-rule="nonzero"/></clipPath><clipPath id="da3dabc2ea"><rect x="0" width="122" y="0" height="47"/></clipPath><clipPath id="591eb26511"><path d="M 553 475 L 679 475 L 679 539.285156 L 553 539.285156 Z M 553 475 " clip-rule="nonzero"/></clipPath><mask id="10cefd569a"><g filter="url(#e53a8e5973)"><rect x="-81" width="972" fill="#000000" y="-80.999999" height="971.999992" fill-opacity="0.4"/></g></mask><clipPath id="eca6b99f9b"><path d="M 0.679688 0.441406 L 125.960938 0.441406 L 125.960938 64.285156 L 0.679688 64.285156 Z M 0.679688 0.441406 " clip-rule="nonzero"/></clipPath><clipPath id="6da368fc03"><rect x="0" width="126" y="0" height="65"/></clipPath><clipPath id="2cfeaf103d"><rect x="0" width="550" y="0" height="177"/></clipPath></defs><rect x="-81" width="972" fill="#ffffff" y="-80.999999" height="971.999992" fill-opacity="1"/><rect x="-81" width="972" fill="#000000" y="-80.999999" height="971.999992" fill-opacity="1"/><g clip-path="url(#8c4a4d3130)"><path fill="#ffffff" d="M 767.371094 409.941406 C 750.082031 415.117188 740.71875 433.582031 726.117188 444.058594 C 724.613281 445.105469 723.105469 446.085938 721.46875 446.9375 C 709.09375 453.617188 694.230469 453.289062 680.21875 451.980469 C 666.207031 450.671875 651.800781 448.707031 638.3125 452.570312 C 636.675781 453.027344 634.972656 453.617188 633.402344 454.335938 C 621.941406 459.378906 612.382812 469.921875 612.839844 482.230469 C 618.734375 478.105469 625.804688 476.207031 633.136719 475.878906 C 637.328125 475.683594 641.652344 476.078125 645.839844 476.863281 C 650.753906 477.777344 655.597656 479.351562 659.984375 481.316406 C 674.652344 487.929688 686.242188 499.910156 695.734375 512.875 C 684.277344 515.691406 672.097656 514.707031 660.640625 511.632812 C 651.800781 509.273438 643.351562 505.738281 635.101562 501.808594 C 632.679688 500.695312 630.257812 499.519531 627.835938 498.339844 C 624.300781 496.636719 620.5 494.804688 616.574219 495.195312 C 613.234375 495.523438 610.285156 497.355469 607.601562 499.386719 C 592.214844 511.042969 582.523438 530.097656 564.777344 537.757812 C 562.355469 538.804688 559.605469 539.589844 557.117188 538.738281 C 555.742188 538.28125 554.5 536.773438 553.976562 535.269531 C 553.515625 534.023438 553.648438 532.714844 554.5625 531.996094 C 575.058594 517.261719 592.933594 498.929688 607.144531 478.039062 C 611.335938 471.949219 615.199219 465.46875 617.03125 458.265625 C 617.488281 456.5 617.816406 454.664062 617.949219 452.832031 C 618.40625 447.265625 617.359375 441.503906 614.214844 436.921875 C 609.304688 429.652344 600.464844 426.378906 592.867188 421.992188 C 575.058594 411.839844 562.617188 394.425781 555.21875 375.171875 C 553.320312 370.132812 551.75 365.023438 550.503906 359.851562 C 544.546875 334.773438 545.59375 308.582031 547.097656 282.847656 C 582.328125 284.8125 612.710938 311.722656 626.199219 344.398438 C 627.898438 348.523438 629.339844 352.648438 630.519531 356.90625 C 638.902344 386.4375 635.625 418.847656 625.019531 447.855469 C 626.460938 447.265625 627.835938 446.480469 629.144531 445.695312 C 635.101562 441.960938 639.816406 436.132812 643.089844 429.847656 C 647.085938 422.1875 649.3125 413.675781 651.472656 405.226562 C 651.800781 403.984375 652.128906 402.738281 652.390625 401.496094 C 652.78125 399.792969 653.242188 398.089844 653.632812 396.386719 C 655.730469 387.351562 657.039062 378.121094 655.464844 369.082031 C 655.464844 368.886719 655.402344 368.691406 655.402344 368.496094 C 654.027344 360.964844 650.621094 353.957031 647.542969 346.886719 C 646.757812 345.054688 645.972656 343.15625 645.253906 341.320312 C 637.460938 320.5625 637.851562 296.859375 646.363281 276.429688 C 661.753906 288.9375 664.371094 311.460938 662.277344 331.171875 C 661.816406 335.691406 661.164062 340.207031 660.441406 344.726562 C 659.132812 353.238281 657.757812 361.75 657.234375 370.195312 C 656.839844 376.417969 656.972656 382.636719 657.953125 388.792969 C 658.019531 389.25 658.085938 389.773438 658.21875 390.234375 C 664.4375 386.828125 665.746094 378.710938 666.859375 371.703125 C 669.480469 355.855469 675.242188 340.667969 683.558594 326.914062 C 698.945312 301.3125 722.976562 280.820312 751.132812 270.800781 C 748.707031 292.410156 745.105469 314.082031 736.59375 334.117188 C 733.84375 340.535156 730.570312 346.820312 726.773438 352.648438 C 718.71875 365.089844 708.175781 375.828125 695.277344 382.898438 C 684.34375 388.925781 671.902344 392.328125 662.210938 400.25 C 660.835938 401.363281 659.59375 402.542969 658.414062 403.789062 C 650.949219 411.578125 646.496094 422.253906 646.101562 433.058594 C 646.039062 435.019531 646.101562 436.984375 646.300781 439.015625 C 649.507812 437.445312 652.257812 435.28125 654.8125 432.792969 C 659.984375 427.753906 664.242188 421.46875 669.480469 416.425781 C 681.855469 404.507812 699.796875 399.859375 716.953125 400.1875 C 734.105469 400.449219 750.871094 405.226562 767.371094 409.941406 Z M 767.371094 409.941406 " fill-opacity="1" fill-rule="nonzero"/></g><g mask="url(#a412ad622b)"><g transform="matrix(1, 0, 0, 1, 555, 302)"><g clip-path="url(#e5169c4bab)"><g clip-path="url(#d406a98884)"><path fill="#d9d9d9" d="M 70.019531 145.855469 C 71.460938 145.265625 72.835938 144.480469 74.144531 143.695312 C 72.246094 146.96875 69.625 149.914062 65.960938 150.699219 C 64.976562 150.898438 63.996094 150.960938 63.011719 150.898438 C 63.472656 145.332031 62.421875 139.570312 59.28125 134.984375 C 54.371094 127.71875 45.53125 124.441406 37.933594 120.054688 C 20.125 109.90625 7.683594 92.488281 0.285156 73.238281 C 1.398438 73.371094 2.839844 74.679688 4.148438 75.921875 C 7.226562 78.671875 10.367188 81.421875 13.511719 84.042969 C 19.863281 89.28125 26.476562 94.191406 33.613281 98.25 C 37.476562 100.476562 41.40625 102.507812 45.53125 104.144531 C 46.644531 104.601562 58.234375 108.074219 58.234375 108.203125 C 57.445312 88.363281 51.226562 68.984375 42.320312 51.238281 C 33.417969 33.492188 21.957031 17.125 10.171875 1.148438 C 22.089844 7.105469 30.929688 17.84375 37.933594 29.171875 C 50.898438 50.125 58.953125 74.089844 61.246094 98.644531 C 61.375 100.214844 61.507812 101.851562 62.292969 103.226562 C 63.011719 104.601562 64.519531 105.714844 66.089844 105.453125 C 67.269531 105.257812 68.1875 104.40625 68.90625 103.488281 C 72.375 99.101562 73.097656 93.210938 73.554688 87.644531 C 74.539062 76.773438 75.257812 65.839844 75.648438 54.90625 C 83.902344 84.371094 80.625 116.847656 70.019531 145.855469 Z M 70.019531 145.855469 " fill-opacity="1" fill-rule="nonzero"/></g></g></g></g><g mask="url(#e29369786b)"><g transform="matrix(1, 0, 0, 1, 647, 303)"><g clip-path="url(#8db29346c7)"><g clip-path="url(#2f54b03ff1)"><path fill="#d9d9d9" d="M 13.441406 41.660156 C 12.132812 50.171875 10.757812 58.683594 10.234375 67.132812 C 9.578125 66.933594 8.992188 66.542969 8.464844 66.019531 C 8.464844 65.820312 8.402344 65.625 8.402344 65.429688 C 7.027344 57.898438 3.621094 50.894531 0.542969 43.820312 C 1.984375 43.363281 3.882812 44.214844 5.0625 43.230469 C 5.847656 42.578125 5.914062 41.398438 5.914062 40.417969 C 5.914062 27.191406 5.191406 13.960938 3.753906 0.800781 C 5.324219 12.71875 6.894531 24.636719 8.53125 36.554688 C 8.730469 38.058594 9.054688 39.828125 10.367188 40.679688 C 11.152344 41.332031 12.394531 41.332031 13.441406 41.660156 Z M 13.441406 41.660156 " fill-opacity="1" fill-rule="nonzero"/></g></g></g></g><g mask="url(#204330f571)"><g transform="matrix(1, 0, 0, 1, 651, 294)"><g clip-path="url(#b8a1e8bdaf)"><g clip-path="url(#cbfb579658)"><path fill="#d9d9d9" d="M 73.152344 59.632812 C 74.003906 59.304688 74.855469 58.910156 75.773438 58.648438 C 67.71875 71.089844 57.175781 81.828125 44.277344 88.898438 C 33.34375 94.925781 20.902344 98.328125 11.210938 106.25 C 9.835938 107.363281 8.59375 108.542969 7.414062 109.789062 C 5.578125 110.375 3.8125 110.902344 1.980469 111.425781 C 1.519531 110.179688 1.390625 108.871094 1.453125 107.5625 C 1.847656 105.859375 2.304688 104.15625 2.699219 102.453125 C 2.765625 102.324219 2.828125 102.191406 2.894531 101.996094 C 4.007812 99.441406 5.578125 97.214844 7.085938 94.792969 C 7.152344 95.25 7.21875 95.773438 7.347656 96.234375 C 13.566406 92.828125 14.878906 84.710938 15.992188 77.703125 C 18.609375 61.855469 24.371094 46.667969 32.6875 32.914062 C 32.164062 37.628906 30.984375 42.410156 30.265625 47.058594 C 29.21875 53.410156 28.234375 59.761719 27.253906 66.046875 C 43.296875 43.261719 59.402344 20.277344 79.570312 0.960938 C 64.445312 21.652344 49.1875 42.539062 37.925781 65.589844 C 36.945312 67.554688 36.09375 70.109375 37.535156 71.746094 C 39.105469 73.511719 41.921875 72.726562 44.082031 71.808594 C 53.707031 67.75 63.398438 63.691406 73.152344 59.632812 Z M 73.152344 59.632812 " fill-opacity="1" fill-rule="nonzero"/></g></g></g></g><g mask="url(#03d1a81cc8)"><g transform="matrix(1, 0, 0, 1, 632, 408)"><g clip-path="url(#da3dabc2ea)"><g clip-path="url(#bf6bbd355e)"><path fill="#d9d9d9" d="M 93.660156 32.457031 C 93.988281 33.632812 94.117188 34.8125 94.117188 36.058594 C 92.613281 37.105469 91.105469 38.085938 89.46875 38.9375 C 77.09375 45.617188 62.230469 45.289062 48.21875 43.980469 C 34.207031 42.671875 19.800781 40.707031 6.3125 44.570312 C 4.675781 45.027344 2.972656 45.617188 1.402344 46.335938 C -0.171875 43.324219 1.53125 39.199219 3.5625 36.253906 C 5.65625 33.175781 8.078125 30.359375 10.5 27.542969 C 11.484375 26.433594 12.53125 25.253906 13.972656 24.992188 C 13.90625 26.957031 13.972656 28.917969 14.167969 30.949219 C 17.378906 29.378906 20.128906 27.21875 22.679688 24.730469 C 25.890625 22.960938 29.097656 21.195312 32.4375 19.554688 C 39.445312 16.019531 46.644531 12.8125 53.980469 10.0625 C 58.234375 8.492188 62.492188 7.117188 66.8125 5.9375 C 84.492188 1.089844 103.417969 -0.285156 121.160156 4.101562 C 91.828125 7.050781 62.886719 14.316406 35.644531 25.582031 C 34.074219 26.234375 32.503906 26.890625 31.390625 28.132812 C 30.277344 29.378906 29.753906 31.34375 30.667969 32.78125 C 31.519531 34.09375 33.222656 34.550781 34.792969 34.8125 C 54.308594 38.152344 74.539062 37.367188 93.660156 32.457031 Z M 93.660156 32.457031 " fill-opacity="1" fill-rule="nonzero"/></g></g></g></g><g clip-path="url(#591eb26511)"><g mask="url(#10cefd569a)"><g transform="matrix(1, 0, 0, 1, 553, 475)"><g clip-path="url(#6da368fc03)"><g clip-path="url(#eca6b99f9b)"><path fill="#d9d9d9" d="M 82.101562 26.875 C 79.679688 25.761719 77.257812 24.582031 74.835938 23.40625 C 71.300781 21.703125 67.5 19.867188 63.574219 20.261719 C 60.234375 20.589844 57.285156 22.421875 54.601562 24.453125 C 39.214844 36.105469 29.523438 55.160156 11.777344 62.824219 C 9.355469 63.871094 6.605469 64.65625 4.117188 63.804688 C 2.742188 63.347656 1.5 61.839844 0.976562 60.335938 C 15.773438 54.835938 29.128906 45.601562 39.476562 33.683594 C 44.519531 27.855469 48.90625 21.441406 54.339844 16.003906 C 61.476562 8.933594 70.449219 3.761719 80.074219 1.011719 C 84.261719 0.8125 88.585938 1.207031 92.777344 1.992188 C 86.6875 6.316406 79.8125 9.390625 72.542969 11.027344 C 87.601562 11.75 102.464844 15.023438 116.480469 20.589844 C 120.667969 22.292969 125.449219 24.910156 125.777344 29.429688 C 109.015625 21.832031 91.140625 16.792969 72.9375 14.5 C 71.363281 15.742188 71.757812 18.363281 73.066406 19.867188 C 74.375 21.375 76.273438 22.160156 77.976562 23.273438 C 79.613281 24.125 80.988281 25.433594 82.101562 26.875 Z M 82.101562 26.875 " fill-opacity="1" fill-rule="nonzero"/></g></g></g></g></g><g transform="matrix(1, 0, 0, 1, 42, 374)"><g clip-path="url(#2cfeaf103d)"><g fill="#ffffff" fill-opacity="1"><g transform="translate(0.622996, 135.804827)"><g><path d="M 5.375 -78.125 C 4.519531 -78.125 3.835938 -78.421875 3.328125 -79.015625 C 2.816406 -79.617188 2.5625 -80.347656 2.5625 -81.203125 L 2.5625 -127.875 L 101.921875 -127.875 L 101.921875 -81.203125 C 101.921875 -80.347656 101.6875 -79.617188 101.21875 -79.015625 C 100.75 -78.421875 100.046875 -78.125 99.109375 -78.125 C 98.078125 -78.125 96.898438 -79.164062 95.578125 -81.25 C 94.265625 -83.34375 92.859375 -86.03125 91.359375 -89.3125 C 89.867188 -92.601562 88.332031 -96.101562 86.75 -99.8125 C 85.175781 -103.519531 83.601562 -107.015625 82.03125 -110.296875 C 80.457031 -113.578125 78.921875 -116.257812 77.421875 -118.34375 C 75.929688 -120.4375 74.503906 -121.484375 73.140625 -121.484375 C 71.265625 -121.484375 70.132812 -120.609375 69.75 -118.859375 C 69.375 -117.109375 69.1875 -115.253906 69.1875 -113.296875 L 69.1875 -15.09375 C 69.1875 -11.425781 69.503906 -8.421875 70.140625 -6.078125 C 70.773438 -3.734375 71.945312 -1.707031 73.65625 0 L 30.8125 0 C 32.519531 -1.707031 33.691406 -3.734375 34.328125 -6.078125 C 34.972656 -8.421875 35.296875 -11.425781 35.296875 -15.09375 L 35.296875 -113.296875 C 35.296875 -115.253906 35.101562 -117.109375 34.71875 -118.859375 C 34.332031 -120.609375 33.203125 -121.484375 31.328125 -121.484375 C 29.960938 -121.484375 28.535156 -120.4375 27.046875 -118.34375 C 25.554688 -116.257812 24.019531 -113.578125 22.4375 -110.296875 C 20.863281 -107.015625 19.285156 -103.519531 17.703125 -99.8125 C 16.128906 -96.101562 14.597656 -92.601562 13.109375 -89.3125 C 11.617188 -86.03125 10.234375 -83.34375 8.953125 -81.25 C 7.671875 -79.164062 6.476562 -78.125 5.375 -78.125 Z M 5.375 -78.125 "/></g></g></g><g fill="#ffffff" fill-opacity="1"><g transform="translate(105.096115, 135.804827)"><g><path d="M 3.203125 -63.9375 C 3.203125 -70.25 3.796875 -76.554688 4.984375 -82.859375 C 6.179688 -89.171875 8.015625 -95.140625 10.484375 -100.765625 C 12.953125 -106.390625 16.019531 -111.375 19.6875 -115.71875 C 23.351562 -120.070312 27.679688 -123.503906 32.671875 -126.015625 C 37.660156 -128.535156 43.304688 -129.796875 49.609375 -129.796875 C 52.941406 -129.796875 56.117188 -129.367188 59.140625 -128.515625 C 62.171875 -127.660156 65.28125 -126.804688 68.46875 -125.953125 C 71.664062 -125.097656 75.1875 -124.671875 79.03125 -124.671875 C 82.007812 -124.671875 84.375 -125.097656 86.125 -125.953125 C 87.875 -126.804688 89.363281 -127.660156 90.59375 -128.515625 C 91.832031 -129.367188 93.09375 -129.796875 94.375 -129.796875 C 96.070312 -129.796875 97.050781 -128.832031 97.3125 -126.90625 C 97.570312 -124.988281 97.378906 -122.601562 96.734375 -119.75 C 96.097656 -116.894531 95.179688 -114.0625 93.984375 -111.25 C 93.128906 -109.289062 91.890625 -106.96875 90.265625 -104.28125 C 88.648438 -101.59375 86.648438 -99.269531 84.265625 -97.3125 C 81.878906 -95.351562 79.148438 -94.375 76.078125 -94.375 C 71.566406 -94.375 67.539062 -94.882812 64 -95.90625 C 60.457031 -96.925781 57.21875 -98.203125 54.28125 -99.734375 C 51.34375 -101.273438 48.53125 -102.8125 45.84375 -104.34375 C 43.15625 -105.875 40.40625 -107.148438 37.59375 -108.171875 C 34.78125 -109.203125 31.710938 -109.71875 28.390625 -109.71875 C 26.253906 -109.71875 24.503906 -109.140625 23.140625 -107.984375 C 21.773438 -106.835938 20.707031 -105.410156 19.9375 -103.703125 C 19.175781 -102.003906 18.644531 -100.300781 18.34375 -98.59375 C 18.050781 -96.882812 17.90625 -95.4375 17.90625 -94.25 C 17.90625 -93.644531 17.882812 -92.554688 17.84375 -90.984375 C 17.800781 -89.410156 17.800781 -87.75 17.84375 -86 C 17.882812 -84.25 18.09375 -82.753906 18.46875 -81.515625 C 18.851562 -80.285156 19.472656 -79.671875 20.328125 -79.671875 C 21.609375 -79.671875 22.910156 -80.222656 24.234375 -81.328125 C 25.554688 -82.429688 27.320312 -83.535156 29.53125 -84.640625 C 31.75 -85.753906 34.734375 -86.3125 38.484375 -86.3125 C 41.640625 -86.3125 44.707031 -85.78125 47.6875 -84.71875 C 50.675781 -83.65625 53.578125 -82.441406 56.390625 -81.078125 C 59.203125 -79.710938 61.953125 -78.492188 64.640625 -77.421875 C 67.328125 -76.359375 69.90625 -75.828125 72.375 -75.828125 C 74.332031 -75.828125 75.863281 -76.253906 76.96875 -77.109375 C 78.082031 -77.960938 78.976562 -78.789062 79.65625 -79.59375 C 80.34375 -80.40625 81.03125 -80.8125 81.71875 -80.8125 C 82.738281 -80.8125 83.523438 -80.109375 84.078125 -78.703125 C 84.628906 -77.296875 84.90625 -75.570312 84.90625 -73.53125 C 84.90625 -71.394531 84.5 -69.09375 83.6875 -66.625 C 82.882812 -64.15625 81.609375 -61.8125 79.859375 -59.59375 C 78.109375 -57.375 75.847656 -55.5625 73.078125 -54.15625 C 70.304688 -52.75 66.960938 -52.046875 63.046875 -52.046875 C 59.296875 -52.046875 55.882812 -52.832031 52.8125 -54.40625 C 49.738281 -55.988281 46.945312 -57.929688 44.4375 -60.234375 C 41.925781 -62.535156 39.582031 -64.8125 37.40625 -67.0625 C 35.226562 -69.320312 33.113281 -71.238281 31.0625 -72.8125 C 29.019531 -74.394531 26.9375 -75.1875 24.8125 -75.1875 C 23.445312 -75.1875 22.550781 -74.757812 22.125 -73.90625 C 21.695312 -73.0625 21.523438 -72.082031 21.609375 -70.96875 C 21.691406 -69.863281 21.863281 -68.882812 22.125 -68.03125 C 24.675781 -60.1875 28.191406 -53.257812 32.671875 -47.25 C 37.148438 -41.238281 42.203125 -36.523438 47.828125 -33.109375 C 53.453125 -29.703125 59.207031 -28 65.09375 -28 C 69.601562 -28 73.304688 -28.640625 76.203125 -29.921875 C 79.109375 -31.203125 81.476562 -32.78125 83.3125 -34.65625 C 85.144531 -36.53125 86.632812 -38.40625 87.78125 -40.28125 C 88.9375 -42.15625 90.003906 -43.734375 90.984375 -45.015625 C 91.960938 -46.296875 93.09375 -46.9375 94.375 -46.9375 C 95.132812 -46.9375 95.851562 -46.53125 96.53125 -45.71875 C 97.21875 -44.90625 97.5625 -43.007812 97.5625 -40.03125 C 97.5625 -35.675781 96.625 -31.066406 94.75 -26.203125 C 92.875 -21.347656 90.125 -16.789062 86.5 -12.53125 C 82.882812 -8.269531 78.429688 -4.796875 73.140625 -2.109375 C 67.859375 0.578125 61.804688 1.921875 54.984375 1.921875 C 47.828125 1.921875 41.113281 0.554688 34.84375 -2.171875 C 28.582031 -4.898438 23.082031 -8.992188 18.34375 -14.453125 C 13.613281 -19.910156 9.90625 -26.769531 7.21875 -35.03125 C 4.539062 -43.300781 3.203125 -52.9375 3.203125 -63.9375 Z M 3.203125 -63.9375 "/></g></g></g><g fill="#ffffff" fill-opacity="1"><g transform="translate(198.188431, 135.804827)"><g><path d="M 0 0 C 2.644531 -2.21875 4.773438 -5.582031 6.390625 -10.09375 C 8.015625 -14.613281 9.632812 -19.519531 11.25 -24.8125 C 13.8125 -33.5 16.050781 -41.421875 17.96875 -48.578125 C 19.882812 -55.742188 21.585938 -62.71875 23.078125 -69.5 C 24.566406 -76.28125 26.015625 -83.332031 27.421875 -90.65625 C 28.835938 -97.988281 30.351562 -106.085938 31.96875 -114.953125 C 32.394531 -117.429688 32.394531 -119.863281 31.96875 -122.25 C 31.539062 -124.632812 30.601562 -126.507812 29.15625 -127.875 L 85.796875 -127.875 C 84.441406 -126.507812 83.523438 -124.632812 83.046875 -122.25 C 82.578125 -119.863281 82.554688 -117.429688 82.984375 -114.953125 C 84.609375 -106.085938 86.125 -97.988281 87.53125 -90.65625 C 88.9375 -83.332031 90.382812 -76.28125 91.875 -69.5 C 93.363281 -62.71875 95.066406 -55.742188 96.984375 -48.578125 C 98.910156 -41.421875 101.148438 -33.5 103.703125 -24.8125 C 105.328125 -19.519531 106.945312 -14.613281 108.5625 -10.09375 C 110.1875 -5.582031 112.316406 -2.21875 114.953125 0 L 62.140625 0 C 63.597656 -1.707031 64.726562 -3.796875 65.53125 -6.265625 C 66.34375 -8.734375 66.75 -11.289062 66.75 -13.9375 C 66.75 -16.070312 66.363281 -20.035156 65.59375 -25.828125 C 64.832031 -31.628906 63.8125 -38.148438 62.53125 -45.390625 L 43.734375 -45.390625 C 45.953125 -40.023438 47.976562 -34.695312 49.8125 -29.40625 C 51.644531 -24.125 52.5625 -18.84375 52.5625 -13.5625 C 52.5625 -11.59375 52.300781 -9.539062 51.78125 -7.40625 C 51.269531 -5.28125 50.351562 -3.515625 49.03125 -2.109375 C 47.71875 -0.703125 45.78125 0 43.21875 0 Z M 41.296875 -51.15625 L 61.375 -51.15625 C 60.1875 -57.289062 58.863281 -63.40625 57.40625 -69.5 C 55.957031 -75.59375 54.398438 -81.15625 52.734375 -86.1875 C 51.078125 -91.21875 49.375 -95.242188 47.625 -98.265625 C 45.882812 -101.296875 44.117188 -102.8125 42.328125 -102.8125 C 40.109375 -102.8125 38.359375 -101.875 37.078125 -100 C 35.804688 -98.125 34.890625 -95.671875 34.328125 -92.640625 C 33.773438 -89.617188 33.5 -86.398438 33.5 -82.984375 C 33.5 -77.359375 34.285156 -71.898438 35.859375 -66.609375 C 37.441406 -61.328125 39.253906 -56.175781 41.296875 -51.15625 Z M 41.296875 -51.15625 "/></g></g></g><g fill="#ffffff" fill-opacity="1"><g transform="translate(309.311007, 135.804827)"><g><path d="M 40.796875 1.921875 C 35.421875 1.921875 30.367188 1.113281 25.640625 -0.5 C 20.910156 -2.125 16.710938 -4.300781 13.046875 -7.03125 C 9.378906 -9.757812 6.5 -12.890625 4.40625 -16.421875 C 2.320312 -19.960938 1.28125 -23.65625 1.28125 -27.5 C 1.28125 -29.03125 2.109375 -30.710938 3.765625 -32.546875 C 5.429688 -34.378906 7.582031 -36.191406 10.21875 -37.984375 C 12.863281 -39.773438 15.613281 -41.394531 18.46875 -42.84375 C 21.332031 -44.289062 24 -45.460938 26.46875 -46.359375 C 28.9375 -47.253906 30.851562 -47.65625 32.21875 -47.5625 C 34.1875 -47.476562 35.847656 -46.816406 37.203125 -45.578125 C 38.566406 -44.347656 39.082031 -42.5 38.75 -40.03125 C 38.320312 -36.695312 37.976562 -33.175781 37.71875 -29.46875 C 37.46875 -25.757812 37.722656 -22.285156 38.484375 -19.046875 C 39.253906 -15.804688 40.894531 -13.164062 43.40625 -11.125 C 45.925781 -9.082031 49.660156 -8.0625 54.609375 -8.0625 C 57.929688 -8.0625 61 -8.804688 63.8125 -10.296875 C 66.625 -11.785156 68.898438 -13.847656 70.640625 -16.484375 C 72.390625 -19.128906 73.265625 -22.070312 73.265625 -25.3125 C 73.265625 -29.664062 72.132812 -33.3125 69.875 -36.25 C 67.625 -39.195312 64.6875 -41.648438 61.0625 -43.609375 C 57.4375 -45.566406 53.492188 -47.1875 49.234375 -48.46875 C 42.921875 -50.425781 36.929688 -52.488281 31.265625 -54.65625 C 25.597656 -56.832031 20.585938 -59.457031 16.234375 -62.53125 C 11.890625 -65.601562 8.457031 -69.414062 5.9375 -73.96875 C 3.425781 -78.53125 2.171875 -84.179688 2.171875 -90.921875 C 2.171875 -96.285156 3.210938 -101.3125 5.296875 -106 C 7.390625 -110.695312 10.25 -114.832031 13.875 -118.40625 C 17.5 -121.988281 21.695312 -124.78125 26.46875 -126.78125 C 31.238281 -128.789062 36.3125 -129.796875 41.6875 -129.796875 C 45.007812 -129.796875 48.179688 -129.367188 51.203125 -128.515625 C 54.234375 -127.660156 57.328125 -126.804688 60.484375 -125.953125 C 63.640625 -125.097656 67.175781 -124.671875 71.09375 -124.671875 C 74.082031 -124.671875 76.445312 -125.097656 78.1875 -125.953125 C 79.9375 -126.804688 81.429688 -127.660156 82.671875 -128.515625 C 83.910156 -129.367188 85.164062 -129.796875 86.4375 -129.796875 C 87.976562 -129.796875 88.9375 -128.941406 89.3125 -127.234375 C 89.695312 -125.523438 89.632812 -123.328125 89.125 -120.640625 C 88.613281 -117.960938 87.738281 -115.109375 86.5 -112.078125 C 85.269531 -109.054688 83.71875 -106.203125 81.84375 -103.515625 C 79.96875 -100.828125 77.878906 -98.628906 75.578125 -96.921875 C 73.273438 -95.222656 70.800781 -94.375 68.15625 -94.375 C 63.46875 -94.375 59.140625 -95.140625 55.171875 -96.671875 C 51.210938 -98.203125 47.398438 -99.988281 43.734375 -102.03125 C 40.066406 -104.082031 36.335938 -105.875 32.546875 -107.40625 C 28.753906 -108.945312 24.722656 -109.71875 20.453125 -109.71875 C 18.066406 -109.71875 16.039062 -108.84375 14.375 -107.09375 C 12.71875 -105.34375 11.890625 -103.234375 11.890625 -100.765625 C 11.890625 -97.359375 13.234375 -94.566406 15.921875 -92.390625 C 18.609375 -90.210938 22.101562 -88.484375 26.40625 -87.203125 C 30.707031 -85.929688 35.394531 -84.953125 40.46875 -84.265625 C 45.539062 -83.585938 50.507812 -83.035156 55.375 -82.609375 C 62.53125 -81.921875 68.8125 -79.976562 74.21875 -76.78125 C 79.632812 -73.59375 83.859375 -69.414062 86.890625 -64.25 C 89.921875 -59.09375 91.4375 -53.234375 91.4375 -46.671875 C 91.4375 -40.960938 90.453125 -35.25 88.484375 -29.53125 C 86.523438 -23.820312 83.519531 -18.601562 79.46875 -13.875 C 75.425781 -9.144531 70.207031 -5.328125 63.8125 -2.421875 C 57.414062 0.472656 49.742188 1.921875 40.796875 1.921875 Z M 40.796875 1.921875 "/></g></g></g><g fill="#ffffff" fill-opacity="1"><g transform="translate(403.937838, 135.804827)"><g><path d="M 3.203125 -63.9375 C 3.203125 -70.25 3.796875 -76.554688 4.984375 -82.859375 C 6.179688 -89.171875 8.015625 -95.140625 10.484375 -100.765625 C 12.953125 -106.390625 16.019531 -111.375 19.6875 -115.71875 C 23.351562 -120.070312 27.679688 -123.503906 32.671875 -126.015625 C 37.660156 -128.535156 43.304688 -129.796875 49.609375 -129.796875 C 52.941406 -129.796875 56.117188 -129.367188 59.140625 -128.515625 C 62.171875 -127.660156 65.28125 -126.804688 68.46875 -125.953125 C 71.664062 -125.097656 75.1875 -124.671875 79.03125 -124.671875 C 82.007812 -124.671875 84.375 -125.097656 86.125 -125.953125 C 87.875 -126.804688 89.363281 -127.660156 90.59375 -128.515625 C 91.832031 -129.367188 93.09375 -129.796875 94.375 -129.796875 C 96.070312 -129.796875 97.050781 -128.832031 97.3125 -126.90625 C 97.570312 -124.988281 97.378906 -122.601562 96.734375 -119.75 C 96.097656 -116.894531 95.179688 -114.0625 93.984375 -111.25 C 93.128906 -109.289062 91.890625 -106.96875 90.265625 -104.28125 C 88.648438 -101.59375 86.648438 -99.269531 84.265625 -97.3125 C 81.878906 -95.351562 79.148438 -94.375 76.078125 -94.375 C 71.566406 -94.375 67.539062 -94.882812 64 -95.90625 C 60.457031 -96.925781 57.21875 -98.203125 54.28125 -99.734375 C 51.34375 -101.273438 48.53125 -102.8125 45.84375 -104.34375 C 43.15625 -105.875 40.40625 -107.148438 37.59375 -108.171875 C 34.78125 -109.203125 31.710938 -109.71875 28.390625 -109.71875 C 26.253906 -109.71875 24.503906 -109.140625 23.140625 -107.984375 C 21.773438 -106.835938 20.707031 -105.410156 19.9375 -103.703125 C 19.175781 -102.003906 18.644531 -100.300781 18.34375 -98.59375 C 18.050781 -96.882812 17.90625 -95.4375 17.90625 -94.25 C 17.90625 -93.644531 17.882812 -92.554688 17.84375 -90.984375 C 17.800781 -89.410156 17.800781 -87.75 17.84375 -86 C 17.882812 -84.25 18.09375 -82.753906 18.46875 -81.515625 C 18.851562 -80.285156 19.472656 -79.671875 20.328125 -79.671875 C 21.609375 -79.671875 22.910156 -80.222656 24.234375 -81.328125 C 25.554688 -82.429688 27.320312 -83.535156 29.53125 -84.640625 C 31.75 -85.753906 34.734375 -86.3125 38.484375 -86.3125 C 41.640625 -86.3125 44.707031 -85.78125 47.6875 -84.71875 C 50.675781 -83.65625 53.578125 -82.441406 56.390625 -81.078125 C 59.203125 -79.710938 61.953125 -78.492188 64.640625 -77.421875 C 67.328125 -76.359375 69.90625 -75.828125 72.375 -75.828125 C 74.332031 -75.828125 75.863281 -76.253906 76.96875 -77.109375 C 78.082031 -77.960938 78.976562 -78.789062 79.65625 -79.59375 C 80.34375 -80.40625 81.03125 -80.8125 81.71875 -80.8125 C 82.738281 -80.8125 83.523438 -80.109375 84.078125 -78.703125 C 84.628906 -77.296875 84.90625 -75.570312 84.90625 -73.53125 C 84.90625 -71.394531 84.5 -69.09375 83.6875 -66.625 C 82.882812 -64.15625 81.609375 -61.8125 79.859375 -59.59375 C 78.109375 -57.375 75.847656 -55.5625 73.078125 -54.15625 C 70.304688 -52.75 66.960938 -52.046875 63.046875 -52.046875 C 59.296875 -52.046875 55.882812 -52.832031 52.8125 -54.40625 C 49.738281 -55.988281 46.945312 -57.929688 44.4375 -60.234375 C 41.925781 -62.535156 39.582031 -64.8125 37.40625 -67.0625 C 35.226562 -69.320312 33.113281 -71.238281 31.0625 -72.8125 C 29.019531 -74.394531 26.9375 -75.1875 24.8125 -75.1875 C 23.445312 -75.1875 22.550781 -74.757812 22.125 -73.90625 C 21.695312 -73.0625 21.523438 -72.082031 21.609375 -70.96875 C 21.691406 -69.863281 21.863281 -68.882812 22.125 -68.03125 C 24.675781 -60.1875 28.191406 -53.257812 32.671875 -47.25 C 37.148438 -41.238281 42.203125 -36.523438 47.828125 -33.109375 C 53.453125 -29.703125 59.207031 -28 65.09375 -28 C 69.601562 -28 73.304688 -28.640625 76.203125 -29.921875 C 79.109375 -31.203125 81.476562 -32.78125 83.3125 -34.65625 C 85.144531 -36.53125 86.632812 -38.40625 87.78125 -40.28125 C 88.9375 -42.15625 90.003906 -43.734375 90.984375 -45.015625 C 91.960938 -46.296875 93.09375 -46.9375 94.375 -46.9375 C 95.132812 -46.9375 95.851562 -46.53125 96.53125 -45.71875 C 97.21875 -44.90625 97.5625 -43.007812 97.5625 -40.03125 C 97.5625 -35.675781 96.625 -31.066406 94.75 -26.203125 C 92.875 -21.347656 90.125 -16.789062 86.5 -12.53125 C 82.882812 -8.269531 78.429688 -4.796875 73.140625 -2.109375 C 67.859375 0.578125 61.804688 1.921875 54.984375 1.921875 C 47.828125 1.921875 41.113281 0.554688 34.84375 -2.171875 C 28.582031 -4.898438 23.082031 -8.992188 18.34375 -14.453125 C 13.613281 -19.910156 9.90625 -26.769531 7.21875 -35.03125 C 4.539062 -43.300781 3.203125 -52.9375 3.203125 -63.9375 Z M 3.203125 -63.9375 "/></g></g></g><g fill="#ffffff" fill-opacity="1"><g transform="translate(504.0671, 135.804827)"><g/></g></g></g></g></svg>